<?xml version="1.0" standalone="no"?>
<!DOCTYPE svg PUBLIC "-//W3C//DTD SVG 1.1//EN" "http://www.w3.org/Graphics/SVG/1.1/DTD/svg11.dtd" >
<svg xmlns="http://www.w3.org/2000/svg">
<metadata>
This is a custom SVG webfont generated by Font Squirrel.
Copyright   : 2002  FFF Fonts For Flash    wwwfontsforflashcom
Foundry     : Yusuke Kamiyamane
</metadata>
<defs>
<font id="webfontgW4Yf5cR" horiz-adv-x="1280" >
<font-face units-per-em="2048" ascent="1638" descent="-410" />
<missing-glyph horiz-adv-x="768" />
<glyph unicode=" "  horiz-adv-x="768" />
<glyph unicode="&#x09;" horiz-adv-x="768" />
<glyph unicode="&#xa0;" horiz-adv-x="768" />
<glyph unicode="!" horiz-adv-x="512" d="M0 1280h256v-768h-256v768zM0 256h256v-256h-256v256z" />
<glyph unicode="&#x22;" horiz-adv-x="1024" d="M0 1280h256v-512h-256v512zM512 1280h256v-512h-256v512z" />
<glyph unicode="#" horiz-adv-x="1536" d="M768 256h-256v-256h-256v256h-256v256h256v256h-256v256h256v256h256v-256h256v256h256v-256h256v-256h-256v-256h256v-256h-256v-256h-256v256zM512 512h256v256h-256v-256z" />
<glyph unicode="$" horiz-adv-x="1536" d="M512 0h-512v256h512v256h-256v154h-102v102h-154v256h154v102h102v154h256v256h256v-256h512v-256h-512v-256h256v-154h102v-102h154v-256h-154v-102h-102v-154h-256v-256h-256v256zM256 768h256v256h-256v-256zM768 512v-256h256v256h-256z" />
<glyph unicode="%" horiz-adv-x="1536" d="M0 256h256v256h256v256h256v256h256v256h256v-258h-256v-256h-256v-256h-256v-256h-256v-254h-256v256zM1024 256h256v-256h-256v256zM0 1280h256v-256h-256v256z" />
<glyph unicode="&#x26;" d="M256 154h-102v102h-154v256h256v154h-102v102h-154v256h154v102h102v154h512v-256h-512v-256h256v-154h102v-102h154v256h256v-258h-256v-254h256v-256h-256v254h-154v-100h-102v-154h-256v154zM512 256v254h-256v-254h256z" />
<glyph unicode="'" horiz-adv-x="512" d="M0 1280h256v-512h-256v512z" />
<glyph unicode="(" horiz-adv-x="768" d="M256 0h256v-256h-256v154h-102v102h-154v1280h154v102h102v154h256v-256h-256v-1280z" />
<glyph unicode=")" horiz-adv-x="768" d="M256 1280h-256v256h256v-154h102v-102h154v-1280h-154v-102h-102v-154h-256v256h256v1280z" />
<glyph unicode="*" horiz-adv-x="1536" d="M0 1024h256v-256h256v512h256v-512h256v256h256v-258h-256v-254h256v-256h-256v254h-256v-510h-256v510h-256v-254h-256v256h256v254h-256v258z" />
<glyph unicode="+" horiz-adv-x="1536" d="M0 768h512v512h256v-512h512v-256h-512v-512h-256v512h-512v256z" />
<glyph unicode="," horiz-adv-x="768" d="M512 0h-154v-102h-102v-154h-256v256h256v256h256v-256z" />
<glyph unicode="-" horiz-adv-x="1024" d="M0 768h768v-256h-768v256z" />
<glyph unicode="." horiz-adv-x="512" d="M0 256h256v-256h-256v256z" />
<glyph unicode="/" horiz-adv-x="1536" d="M0 256h256v256h256v256h256v256h256v256h256v-258h-256v-256h-256v-256h-256v-256h-256v-254h-256v256z" />
<glyph unicode="0" d="M256 0v154h-102v102h-154v768h154v102h102v154h512v-154h102v-102h154v-768h-154v-102h-102v-154h-512zM256 1024v-768h512v768h-512z" />
<glyph unicode="1" horiz-adv-x="768" d="M0 1280h512v-1280h-256v1024h-256v256z" />
<glyph unicode="2" d="M0 512h154v102h102v154h512v256h-768v256h768v-154h102v-102h154v-256h-154v-102h-102v-154h-512v-256h768v-256h-1024v512z" />
<glyph unicode="3" d="M768 1024h-768v256h768v-154h102v-102h154v-256h-154v-102h-102v-154h256v-256h-154v-102h-102v-154h-768v256h768v254h-512v156h-102v102h614v256z" />
<glyph unicode="4" d="M768 768v512h256v-1280h-256v512h-768v768h256v-512h512z" />
<glyph unicode="5" d="M0 1280h1024v-256h-768v-256h512v-154h102v-102h154v-256h-154v-102h-102v-154h-768v256h768v256h-768v768z" />
<glyph unicode="6" d="M870 1178h-102v-154h-512v-256h512v-154h102v-102h154v-256h-154v-102h-102v-154h-512v154h-102v102h-154v768h154v102h102v154h614v-102zM256 512v-256h512v256h-512z" />
<glyph unicode="7" d="M256 0v512h256v256h256v256h-768v256h1024v-514h-256v-256h-256v-510h-256z" />
<glyph unicode="8" d="M256 0v154h-102v102h-154v256h256v154h-102v102h-154v256h154v102h102v154h512v-154h102v-102h154v-256h-154v-102h-102v-154h256v-256h-154v-102h-102v-154h-512zM256 1024v-256h512v256h-512zM256 510v-254h512v254h-512z" />
<glyph unicode="9" d="M768 512h-512v154h-102v102h-154v256h154v102h102v154h512v-154h102v-102h154v-768h-154v-102h-102v-154h-512v154h-102v102h614v256zM256 1024v-256h512v256h-512z" />
<glyph unicode=":" horiz-adv-x="512" d="M0 256h256v-256h-256v256zM0 1280h256v-256h-256v256z" />
<glyph unicode=";" horiz-adv-x="768" d="M256 1280h256v-256h-256v256zM512 0h-154v-102h-102v-154h-256v256h256v256h256v-256z" />
<glyph unicode="&#x3c;" horiz-adv-x="1024" d="M256 510h-256v258h256v256h256v256h256v-258h-256v-256h-256v-254h256v-256h256v-256h-256v254h-256v256z" />
<glyph unicode="=" horiz-adv-x="1024" d="M0 512h768v-256h-768v256zM0 1024h768v-256h-768v256z" />
<glyph unicode="&#x3e;" horiz-adv-x="1024" d="M512 254h-256v-254h-256v256h256v256h256v254h-256v256h-256v258h256v-256h256v-256h256v-258h-256v-256z" />
<glyph unicode="?" d="M1024 1024v-256h-154v-102h-102v-154h-512v256h512v256h-768v256h768v-154h102v-102h154zM256 256h256v-256h-256v256z" />
<glyph unicode="@" horiz-adv-x="2048" d="M1178 254h-666v-254h512v-256h-512v154h-102v102h-154v154h-102v102h-154v768h154v102h102v154h154v102h102v154h768v-154h102v-102h154v-154h102v-102h154v-768h-154v-102h-102v-154h-256v154h-102v100zM512 512v256h154v102h102v154h512v256h-768v-256h-256v-768h512 v154h-102v102h-154zM1536 256v766h-256v-766h256zM768 512h256v256h-256v-256z" />
<glyph unicode="A" d="M1024 1024v-1024h-256v512h-512v-512h-256v1024h154v102h102v154h512v-154h102v-102h154zM256 768h512v256h-512v-256z" />
<glyph unicode="B" d="M768 666v-154h256v-256h-154v-102h-102v-154h-768v1280h768v-154h102v-102h154v-256h-154v-102h-102zM768 768v256h-512v-256h512zM256 256h512v254h-512v-254z" />
<glyph unicode="C" d="M870 1024h154v-256h-256v256h-512v-768h512v256h256v-256h-154v-102h-102v-154h-512v154h-102v102h-154v768h154v102h102v154h512v-154h102v-102z" />
<glyph unicode="D" d="M1024 1024v-768h-154v-102h-102v-154h-768v1280h768v-154h102v-102h154zM768 1024h-512v-768h512v768z" />
<glyph unicode="E" horiz-adv-x="1024" d="M256 768h512v-256h-512v-256h512v-256h-768v1280h768v-256h-512v-256z" />
<glyph unicode="F" horiz-adv-x="1024" d="M256 768h512v-256h-512v-512h-256v1280h768v-256h-512v-256z" />
<glyph unicode="G" d="M512 768h512v-768h-768v154h-102v102h-154v768h154v102h102v154h768v-256h-768v-768h512v256h-256v256z" />
<glyph unicode="H" d="M768 512h-512v-512h-256v1280h256v-512h512v512h256v-1280h-256v512z" />
<glyph unicode="I" horiz-adv-x="512" d="M0 1280h256v-1280h-256v1280z" />
<glyph unicode="J" horiz-adv-x="1024" d="M512 154v-154h-512v256h512v1024h256v-1024h-154v-102h-102z" />
<glyph unicode="K" d="M512 510h-256v-510h-256v1280h256v-512h256v256h256v256h256v-258h-256v-256h-256v-254h256v-256h256v-256h-256v254h-256v256z" />
<glyph unicode="L" horiz-adv-x="1024" d="M0 1280h256v-1024h512v-256h-768v1280z" />
<glyph unicode="M" horiz-adv-x="2048" d="M256 1024v-1024h-256v1280h768v-154h102v-102h154v256h512v-154h102v-102h154v-1024h-256v1022h-512v-1022h-256v1024h-512z" />
<glyph unicode="N" d="M768 1024h-512v-1024h-256v1280h768v-154h102v-102h154v-1024h-256v1024z" />
<glyph unicode="O" d="M256 0v154h-102v102h-154v768h154v102h102v154h512v-154h102v-102h154v-768h-154v-102h-102v-154h-512zM256 1024v-768h512v768h-512z" />
<glyph unicode="P" d="M1024 1024v-256h-154v-102h-102v-154h-512v-512h-256v1280h768v-154h102v-102h154zM768 1024h-512v-256h512v256z" />
<glyph unicode="Q" d="M256 154h-102v102h-154v768h154v102h102v154h512v-154h102v-102h154v-768h-154v-102h-102v-154h256v-256h-256v254h-512v156zM256 1024v-768h512v768h-512z" />
<glyph unicode="R" d="M1024 1024v-256h-154v-102h-102v-154h256v-512h-256v510h-512v-510h-256v1280h768v-154h102v-102h154zM768 1024h-512v-256h512v256z" />
<glyph unicode="S" d="M0 256h768v256h-512v154h-102v102h-154v256h154v102h102v154h768v-256h-768v-256h512v-154h102v-102h154v-256h-154v-102h-102v-154h-768v256z" />
<glyph unicode="T" horiz-adv-x="1024" d="M0 1280h768v-256h-256v-1024h-256v1024h-256v256z" />
<glyph unicode="U" d="M256 154h-102v102h-154v1024h256v-1024h512v1024h256v-1280h-768v154z" />
<glyph unicode="V" d="M768 154v-154h-512v154h-102v102h-154v1024h256v-1024h512v1024h256v-1024h-154v-102h-102z" />
<glyph unicode="W" horiz-adv-x="2048" d="M768 154v-154h-512v154h-102v102h-154v1024h256v-1024h512v1024h256v-1024h512v1024h256v-1024h-154v-102h-102v-154h-512v254h-154v-100h-102z" />
<glyph unicode="X" d="M768 666v-154h256v-512h-256v510h-512v-510h-256v512h256v154h-102v102h-154v512h256v-512h512v512h256v-512h-154v-102h-102z" />
<glyph unicode="Y" d="M0 256h768v256h-512v154h-102v102h-154v512h256v-512h512v512h256v-1024h-154v-102h-102v-154h-768v256z" />
<glyph unicode="Z" horiz-adv-x="1024" d="M512 766v-256h-256v-254h512v-256h-768v512h256v256h256v256h-512v256h768v-514h-256z" />
<glyph unicode="[" horiz-adv-x="768" d="M0 1536h512v-256h-256v-1280h256v-256h-512v1792z" />
<glyph unicode="\" horiz-adv-x="1536" d="M1280 0h-256v254h-256v256h-256v256h-256v256h-256v258h256v-256h256v-256h256v-256h256v-256h256v-256z" />
<glyph unicode="]" horiz-adv-x="768" d="M0 0h256v1280h-256v256h512v-1792h-512v256z" />
<glyph unicode="^" horiz-adv-x="1024" d="M0 1024h154v102h102v154h256v-154h102v-102h154v-256h-256v256h-256v-256h-256v256z" />
<glyph unicode="_" horiz-adv-x="1024" d="M0 256h768v-256h-768v256z" />
<glyph unicode="`" horiz-adv-x="768" d="M512 1536h-256v256h-256v256h256v-154h102v-102h154v-256z" />
<glyph unicode="a" d="M1024 1024v-1024h-256v512h-512v-512h-256v1024h154v102h102v154h512v-154h102v-102h154zM256 768h512v256h-512v-256z" />
<glyph unicode="b" d="M768 666v-154h256v-256h-154v-102h-102v-154h-768v1280h768v-154h102v-102h154v-256h-154v-102h-102zM768 768v256h-512v-256h512zM256 256h512v254h-512v-254z" />
<glyph unicode="c" d="M870 1024h154v-256h-256v256h-512v-768h512v256h256v-256h-154v-102h-102v-154h-512v154h-102v102h-154v768h154v102h102v154h512v-154h102v-102z" />
<glyph unicode="d" d="M1024 1024v-768h-154v-102h-102v-154h-768v1280h768v-154h102v-102h154zM768 1024h-512v-768h512v768z" />
<glyph unicode="e" horiz-adv-x="1024" d="M256 768h512v-256h-512v-256h512v-256h-768v1280h768v-256h-512v-256z" />
<glyph unicode="f" horiz-adv-x="1024" d="M256 768h512v-256h-512v-512h-256v1280h768v-256h-512v-256z" />
<glyph unicode="g" d="M512 768h512v-768h-768v154h-102v102h-154v768h154v102h102v154h768v-256h-768v-768h512v256h-256v256z" />
<glyph unicode="h" d="M768 512h-512v-512h-256v1280h256v-512h512v512h256v-1280h-256v512z" />
<glyph unicode="i" horiz-adv-x="512" d="M0 1280h256v-1280h-256v1280z" />
<glyph unicode="j" horiz-adv-x="1024" d="M512 154v-154h-512v256h512v1024h256v-1024h-154v-102h-102z" />
<glyph unicode="k" d="M512 510h-256v-510h-256v1280h256v-512h256v256h256v256h256v-258h-256v-256h-256v-254h256v-256h256v-256h-256v254h-256v256z" />
<glyph unicode="l" horiz-adv-x="1024" d="M0 1280h256v-1024h512v-256h-768v1280z" />
<glyph unicode="m" horiz-adv-x="2048" d="M256 1024v-1024h-256v1280h768v-154h102v-102h154v256h512v-154h102v-102h154v-1024h-256v1022h-512v-1022h-256v1024h-512z" />
<glyph unicode="n" d="M768 1024h-512v-1024h-256v1280h768v-154h102v-102h154v-1024h-256v1024z" />
<glyph unicode="o" d="M256 0v154h-102v102h-154v768h154v102h102v154h512v-154h102v-102h154v-768h-154v-102h-102v-154h-512zM256 1024v-768h512v768h-512z" />
<glyph unicode="p" d="M1024 1024v-256h-154v-102h-102v-154h-512v-512h-256v1280h768v-154h102v-102h154zM768 1024h-512v-256h512v256z" />
<glyph unicode="q" d="M256 154h-102v102h-154v768h154v102h102v154h512v-154h102v-102h154v-768h-154v-102h-102v-154h256v-256h-256v254h-512v156zM256 1024v-768h512v768h-512z" />
<glyph unicode="r" d="M1024 1024v-256h-154v-102h-102v-154h256v-512h-256v510h-512v-510h-256v1280h768v-154h102v-102h154zM768 1024h-512v-256h512v256z" />
<glyph unicode="s" d="M0 256h768v256h-512v154h-102v102h-154v256h154v102h102v154h768v-256h-768v-256h512v-154h102v-102h154v-256h-154v-102h-102v-154h-768v256z" />
<glyph unicode="t" horiz-adv-x="1024" d="M0 1280h768v-256h-256v-1024h-256v1024h-256v256z" />
<glyph unicode="u" d="M256 154h-102v102h-154v1024h256v-1024h512v1024h256v-1280h-768v154z" />
<glyph unicode="v" d="M768 154v-154h-512v154h-102v102h-154v1024h256v-1024h512v1024h256v-1024h-154v-102h-102z" />
<glyph unicode="w" horiz-adv-x="2048" d="M768 154v-154h-512v154h-102v102h-154v1024h256v-1024h512v1024h256v-1024h512v1024h256v-1024h-154v-102h-102v-154h-512v254h-154v-100h-102z" />
<glyph unicode="x" d="M768 666v-154h256v-512h-256v510h-512v-510h-256v512h256v154h-102v102h-154v512h256v-512h512v512h256v-512h-154v-102h-102z" />
<glyph unicode="y" d="M0 256h768v256h-512v154h-102v102h-154v512h256v-512h512v512h256v-1024h-154v-102h-102v-154h-768v256z" />
<glyph unicode="z" horiz-adv-x="1024" d="M512 766v-256h-256v-254h512v-256h-768v512h256v256h256v256h-512v256h768v-514h-256z" />
<glyph unicode="{" horiz-adv-x="1024" d="M0 768h256v512h154v102h102v154h256v-256h-256v-514h-256v-254h256v-512h256v-256h-256v154h-102v102h-154v510h-256v258z" />
<glyph unicode="|" horiz-adv-x="512" d="M0 1536h256v-1792h-256v1792z" />
<glyph unicode="}" horiz-adv-x="1024" d="M768 510h-256v-510h-154v-102h-102v-154h-256v256h256v512h256v254h-256v514h-256v256h256v-154h102v-102h154v-512h256v-258z" />
<glyph unicode="~" d="M0 1024h154v102h102v154h256v-256h256v256h256v-256h-154v-102h-102v-154h-256v254h-256v-254h-256v256z" />
<glyph unicode="&#xa1;" horiz-adv-x="512" d="M0 1280h256v-256h-256v256zM0 768h256v-768h-256v768z" />
<glyph unicode="&#xa2;" horiz-adv-x="1536" d="M512 0h-256v154h-102v102h-154v768h154v102h102v154h256v256h256v-256h256v-154h102v-102h154v-256h-256v256h-256v-768h256v256h256v-256h-154v-102h-102v-154h-256v-256h-256v256zM256 256h256v768h-256v-768z" />
<glyph unicode="&#xa3;" d="M512 256h512v-256h-1024v256h256v256h-256v256h256v256h154v102h102v154h512v-256h-512v-256h512v-256h-512v-256z" />
<glyph unicode="&#xa4;" horiz-adv-x="1536" d="M0 1280h256v-256h768v256h256v-258h-256v-766h256v-256h-256v254h-768v-254h-256v256h256v766h-256v258zM768 512v256h-256v-256h256z" />
<glyph unicode="&#xa5;" horiz-adv-x="1536" d="M0 512h512v254h-256v256h-256v258h256v-256h256v-256h256v256h256v256h256v-258h-256v-256h-256v-254h512v-256h-512v-256h-256v256h-512v256z" />
<glyph unicode="&#xa6;" horiz-adv-x="512" d="M0 512h256v-768h-256v768zM256 768h-256v768h256v-768z" />
<glyph unicode="&#xa7;" d="M256 922h-102v102h-154v256h154v102h102v154h768v-256h-768v-256h512v-154h102v-102h154v-256h-154v-102h-102v-154h256v-256h-154v-102h-102v-154h-768v256h768v254h-512v156h-102v102h-154v256h256v154zM768 512v254h-512v-254h512z" />
<glyph unicode="&#xa8;" horiz-adv-x="1024" d="M0 1792h256v-256h-256v256zM512 1792h256v-256h-256v256z" />
<glyph unicode="&#xa9;" horiz-adv-x="2048" d="M154 1024v102h102v154h154v102h102v154h768v-154h102v-102h154v-154h102v-102h154v-768h-154v-102h-102v-154h-154v-102h-102v-154h-768v154h-102v102h-154v154h-102v102h-154v768h154zM768 410h-102v102h-154v256h154v102h102v154h512v256h-768v-256h-256v-768h256v-256 h768v254h-512v156zM768 512h512v-256h256v766h-256v-254h-512v-256z" />
<glyph unicode="&#xaa;" horiz-adv-x="1024" d="M154 768h-154v256h154v102h102v154h512v-768h-512v154h-102v102zM256 768h256v256h-256v-256z" />
<glyph unicode="&#xab;" horiz-adv-x="1792" d="M256 510h-256v258h256v256h256v256h256v-258h-256v-256h-256v-254h256v-256h256v-256h-256v254h-256v256zM1024 510h-256v258h256v256h256v256h256v-258h-256v-256h-256v-254h256v-256h256v-256h-256v254h-256v256z" />
<glyph unicode="&#xac;" horiz-adv-x="1024" d="M0 1024h768v-768h-256v512h-512v256z" />
<glyph unicode="&#xad;" horiz-adv-x="1024" d="M0 768h768v-256h-768v256z" />
<glyph unicode="&#xae;" horiz-adv-x="2048" d="M1280 -256h-768v154h-102v102h-154v154h-102v102h-154v768h154v102h102v154h154v102h102v154h768v-154h102v-102h154v-154h102v-102h154v-768h-154v-102h-102v-154h-154v-102h-102v-154zM1280 512v-256h256v766h-256v-254h-256v-256h256zM1024 510h-256v-256h-256v-254 h768v254h-256v256zM512 1024h768v256h-768v-256zM256 256h256v766h-256v-766z" />
<glyph unicode="&#xaf;" horiz-adv-x="1024" d="M0 1792h768v-256h-768v256z" />
<glyph unicode="&#xb0;" horiz-adv-x="1024" d="M512 666v-154h-256v154h-102v102h-154v256h154v102h102v154h256v-154h102v-102h154v-256h-154v-102h-102zM256 768h256v256h-256v-256z" />
<glyph unicode="&#xb1;" horiz-adv-x="1536" d="M0 1024h512v256h256v-256h512v-256h-512v-256h-256v256h-512v256zM0 256h1280v-256h-1280v256z" />
<glyph unicode="&#xb2;" horiz-adv-x="1024" d="M0 1280h154v102h102v154h256v256h-512v256h512v-154h102v-102h154v-256h-154v-102h-102v-154h-256v-256h512v-256h-768v512z" />
<glyph unicode="&#xb3;" horiz-adv-x="1024" d="M512 1792h-512v256h512v-154h102v-102h154v-256h-154v-102h-102v-154h256v-256h-154v-102h-102v-154h-512v256h512v254h-256v156h-102v102h358v256z" />
<glyph unicode="&#xb4;" horiz-adv-x="768" d="M512 1792h-154v-102h-102v-154h-256v256h256v256h256v-256z" />
<glyph unicode="&#xb5;" d="M0 1280h256v-1024h512v1024h256v-1280h-768v-256h-256v1536z" />
<glyph unicode="&#x3bc;" d="M0 1280h256v-1024h512v1024h256v-1280h-768v-256h-256v1536z" />
<glyph unicode="&#xb6;" horiz-adv-x="1536" d="M154 1382h102v154h1024v-1792h-256v1536h-256v-1536h-256v768h-256v154h-102v102h-154v512h154v102z" />
<glyph unicode="&#xb7;" horiz-adv-x="512" d="M0 768h256v-256h-256v256z" />
<glyph unicode="&#xb8;" horiz-adv-x="768" d="M512 -256h-154v-102h-102v-154h-256v256h256v256h256v-256z" />
<glyph unicode="&#xb9;" horiz-adv-x="768" d="M0 2048h512v-1280h-256v1024h-256v256z" />
<glyph unicode="&#xba;" horiz-adv-x="1024" d="M512 666v-154h-256v154h-102v102h-154v256h154v102h102v154h256v-154h102v-102h154v-256h-154v-102h-102zM256 768h256v256h-256v-256z" />
<glyph unicode="&#xbb;" horiz-adv-x="1792" d="M1280 254h-256v-254h-256v256h256v256h256v254h-256v256h-256v258h256v-256h256v-256h256v-258h-256v-256zM512 254h-256v-254h-256v256h256v256h256v254h-256v256h-256v258h256v-256h256v-256h256v-258h-256v-256z" />
<glyph unicode="&#xbc;" horiz-adv-x="3328" d="M2304 1280h256v-512h256v512h256v-1280h-256v512h-512v768zM0 1280h512v-1280h-256v1024h-256v256zM1024 256v256h256v256h256v256h256v256h256v-258h-256v-256h-256v-256h-256v-256h-256v-254h-256v256h256z" />
<glyph unicode="&#xbd;" horiz-adv-x="3328" d="M0 1280h512v-1280h-256v1024h-256v256zM2304 512h154v102h102v154h256v256h-512v256h512v-154h102v-102h154v-256h-154v-102h-102v-154h-256v-256h512v-256h-768v512zM768 256h256v256h256v256h256v256h256v256h256v-258h-256v-256h-256v-256h-256v-256h-256v-254h-256 v256z" />
<glyph unicode="&#xbe;" horiz-adv-x="3584" d="M1024 256h256v256h256v256h256v256h256v256h256v-258h-256v-256h-256v-256h-256v-256h-256v-254h-256v256zM2560 512h512v-512h256v1280h-256v-512h-256v512h-256v-768zM512 768h-358v-102h102v-156h256v-254h-512v-256h512v154h102v102h154v256h-256v154h102v102h154 v256h-154v102h-102v154h-512v-256h512v-256z" />
<glyph unicode="&#xbf;" d="M0 256v256h154v102h102v154h512v-256h-512v-256h768v-256h-768v154h-102v102h-154zM768 1024h-256v256h256v-256z" />
<glyph unicode="&#xc0;" d="M1024 1024v-1024h-256v512h-512v-512h-256v1024h154v102h102v154h512v-154h102v-102h154zM256 768h512v256h-512v-256zM256 2048h256v-256h256v-256h-256v154h-102v102h-154v256z" />
<glyph unicode="&#xc1;" d="M1024 1024v-1024h-256v512h-512v-512h-256v1024h154v102h102v154h512v-154h102v-102h154zM256 768h512v256h-512v-256zM768 1792h-154v-102h-102v-154h-256v256h256v256h256v-256z" />
<glyph unicode="&#xc2;" d="M1024 1024v-1024h-256v512h-512v-512h-256v1024h154v102h102v154h512v-154h102v-102h154zM256 768h512v256h-512v-256zM0 1792h154v102h102v154h512v-154h102v-102h154v-256h-256v256h-512v-256h-256v256z" />
<glyph unicode="&#xc3;" d="M1024 1024v-1024h-256v512h-512v-512h-256v1024h154v102h102v154h512v-154h102v-102h154zM256 768h512v256h-512v-256zM0 1792h154v102h102v154h256v-256h256v256h256v-256h-154v-102h-102v-154h-256v254h-256v-254h-256v256z" />
<glyph unicode="&#xc4;" d="M1024 1024v-1024h-256v512h-512v-512h-256v1024h154v102h102v154h512v-154h102v-102h154zM256 768h512v256h-512v-256zM0 1792h256v-256h-256v256zM768 1792h256v-256h-256v256z" />
<glyph unicode="&#xc5;" d="M1024 1024v-1024h-256v512h-512v-512h-256v1024h154v102h102v154h512v-154h102v-102h154zM256 768h512v256h-512v-256zM768 1690v-154h-512v154h-102v102h-154v256h154v102h102v154h512v-154h102v-102h154v-256h-154v-102h-102zM256 1792h512v256h-512v-256z" />
<glyph unicode="&#xc6;" horiz-adv-x="1792" d="M1024 768h512v-256h-512v-256h512v-256h-768v512h-512v-512h-256v1024h154v102h102v154h1280v-256h-512v-256zM256 768h512v256h-512v-256z" />
<glyph unicode="&#xc7;" d="M870 1024h154v-256h-256v256h-512v-768h512v256h256v-256h-154v-102h-102v-410h-154v-102h-102v-154h-256v256h256v256h-256v154h-102v102h-154v768h154v102h102v154h512v-154h102v-102z" />
<glyph unicode="&#xc8;" horiz-adv-x="1024" d="M256 768h512v-256h-512v-256h512v-256h-768v1280h768v-256h-512v-256zM0 2048h256v-256h256v-256h-256v154h-102v102h-154v256z" />
<glyph unicode="&#xc9;" horiz-adv-x="1024" d="M256 768h512v-256h-512v-256h512v-256h-768v1280h768v-256h-512v-256zM768 1792h-154v-102h-102v-154h-256v256h256v256h256v-256z" />
<glyph unicode="&#xca;" horiz-adv-x="1024" d="M256 768h512v-256h-512v-256h512v-256h-768v1280h768v-256h-512v-256zM0 1792h154v102h102v154h256v-154h102v-102h154v-256h-256v256h-256v-256h-256v256z" />
<glyph unicode="&#xcb;" horiz-adv-x="1024" d="M256 768h512v-256h-512v-256h512v-256h-768v1280h768v-256h-512v-256zM512 1792h256v-256h-256v256zM0 1792h256v-256h-256v256z" />
<glyph unicode="&#xcc;" horiz-adv-x="512" d="M0 1280h256v-1280h-256v1280zM-256 2048h256v-256h256v-256h-256v154h-102v102h-154v256z" />
<glyph unicode="&#xcd;" horiz-adv-x="512" d="M0 1280h256v-1280h-256v1280zM512 1792h-154v-102h-102v-154h-256v256h256v256h256v-256z" />
<glyph unicode="&#xce;" horiz-adv-x="512" d="M0 1280h256v-1280h-256v1280zM-256 1792h154v102h102v154h256v-154h102v-102h154v-256h-256v256h-256v-256h-256v256z" />
<glyph unicode="&#xcf;" horiz-adv-x="512" d="M0 1280h256v-1280h-256v1280zM-256 1792h256v-256h-256v256zM256 1792h256v-256h-256v256z" />
<glyph unicode="&#xd0;" horiz-adv-x="1536" d="M0 768h256v512h768v-154h102v-102h154v-768h-154v-102h-102v-154h-768v512h-256v256zM512 768h256v-256h-256v-256h512v768h-512v-256z" />
<glyph unicode="&#xd1;" d="M768 1024h-512v-1024h-256v1280h768v-154h102v-102h154v-1024h-256v1024zM0 1792h154v102h102v154h256v-256h256v256h256v-256h-154v-102h-102v-154h-256v254h-256v-254h-256v256z" />
<glyph unicode="&#xd2;" d="M256 2048h256v-256h256v-256h-256v154h-102v102h-154v256zM256 0v154h-102v102h-154v768h154v102h102v154h512v-154h102v-102h154v-768h-154v-102h-102v-154h-512zM256 1024v-768h512v768h-512z" />
<glyph unicode="&#xd3;" d="M768 1792h-154v-102h-102v-154h-256v256h256v256h256v-256zM256 0v154h-102v102h-154v768h154v102h102v154h512v-154h102v-102h154v-768h-154v-102h-102v-154h-512zM256 1024v-768h512v768h-512z" />
<glyph unicode="&#xd4;" d="M0 1792h154v102h102v154h512v-154h102v-102h154v-256h-256v256h-512v-256h-256v256zM256 0v154h-102v102h-154v768h154v102h102v154h512v-154h102v-102h154v-768h-154v-102h-102v-154h-512zM256 1024v-768h512v768h-512z" />
<glyph unicode="&#xd5;" d="M0 1792h154v102h102v154h256v-256h256v256h256v-256h-154v-102h-102v-154h-256v254h-256v-254h-256v256zM256 0v154h-102v102h-154v768h154v102h102v154h512v-154h102v-102h154v-768h-154v-102h-102v-154h-512zM256 1024v-768h512v768h-512z" />
<glyph unicode="&#xd6;" d="M0 1792h256v-256h-256v256zM768 1792h256v-256h-256v256zM256 0v154h-102v102h-154v768h154v102h102v154h512v-154h102v-102h154v-768h-154v-102h-102v-154h-512zM256 1024v-768h512v768h-512z" />
<glyph unicode="&#xd7;" horiz-adv-x="1536" d="M768 1024h256v256h256v-258h-256v-256h-256v-254h256v-256h256v-256h-256v254h-256v258h-256v254h-256v256h-256v258h256v-256h256v-256h256v256zM0 256h256v256h256v-258h-256v-254h-256v256z" />
<glyph unicode="&#xd8;" horiz-adv-x="1536" d="M154 512h-154v512h154v102h102v154h512v-154h102v-102h154v256h256v-258h-256v-152h102v-102h154v-512h-154v-102h-102v-154h-512v154h-102v100h-154v-254h-256v256h256v154h-102v102zM256 512h256v256h256v256h-512v-512zM768 766v-256h-256v-254h512v510h-256z" />
<glyph unicode="&#xd9;" d="M256 154h-102v102h-154v1024h256v-1024h512v1024h256v-1280h-768v154zM256 2048h256v-256h256v-256h-256v154h-102v102h-154v256z" />
<glyph unicode="&#xda;" d="M256 154h-102v102h-154v1024h256v-1024h512v1024h256v-1280h-768v154zM768 1792h-154v-102h-102v-154h-256v256h256v256h256v-256z" />
<glyph unicode="&#xdb;" d="M256 154h-102v102h-154v1024h256v-1024h512v1024h256v-1280h-768v154zM0 1792h154v102h102v154h512v-154h102v-102h154v-256h-256v256h-512v-256h-256v256z" />
<glyph unicode="&#xdc;" d="M256 154h-102v102h-154v1024h256v-1024h512v1024h256v-1280h-768v154zM0 1792h256v-256h-256v256zM768 1792h256v-256h-256v256z" />
<glyph unicode="&#xdd;" d="M0 0h768v154h102v102h154v1024h-256v-512h-512v512h-256v-512h154v-102h102v-154h512v-256h-768v-256zM768 1792h-154v-102h-102v-154h-256v256h256v256h256v-256z" />
<glyph unicode="&#xde;" d="M0 -256v1792h256v-256h512v-154h102v-102h154v-768h-154v-102h-102v-154h-512v-256h-256zM768 256v768h-512v-768h512z" />
<glyph unicode="&#xdf;" d="M256 1126v154h512v-154h102v-102h154v-256h-154v-102h-102v-154h256v-256h-154v-102h-102v-154h-256v256h256v254h-256v258h256v256h-512v-1280h-256v1280h154v102h102z" />
<glyph unicode="&#xe0;" d="M1024 1024v-1024h-256v512h-512v-512h-256v1024h154v102h102v154h512v-154h102v-102h154zM256 768h512v256h-512v-256zM256 2048h256v-256h256v-256h-256v154h-102v102h-154v256z" />
<glyph unicode="&#xe1;" d="M1024 1024v-1024h-256v512h-512v-512h-256v1024h154v102h102v154h512v-154h102v-102h154zM256 768h512v256h-512v-256zM768 1792h-154v-102h-102v-154h-256v256h256v256h256v-256z" />
<glyph unicode="&#xe2;" d="M1024 1024v-1024h-256v512h-512v-512h-256v1024h154v102h102v154h512v-154h102v-102h154zM256 768h512v256h-512v-256zM0 1792h154v102h102v154h512v-154h102v-102h154v-256h-256v256h-512v-256h-256v256z" />
<glyph unicode="&#xe3;" d="M1024 1024v-1024h-256v512h-512v-512h-256v1024h154v102h102v154h512v-154h102v-102h154zM256 768h512v256h-512v-256zM0 1792h154v102h102v154h256v-256h256v256h256v-256h-154v-102h-102v-154h-256v254h-256v-254h-256v256z" />
<glyph unicode="&#xe4;" d="M1024 1024v-1024h-256v512h-512v-512h-256v1024h154v102h102v154h512v-154h102v-102h154zM256 768h512v256h-512v-256zM0 1792h256v-256h-256v256zM768 1792h256v-256h-256v256z" />
<glyph unicode="&#xe5;" d="M1024 1024v-1024h-256v512h-512v-512h-256v1024h154v102h102v154h512v-154h102v-102h154zM256 768h512v256h-512v-256zM768 1690v-154h-512v154h-102v102h-154v256h154v102h102v154h512v-154h102v-102h154v-256h-154v-102h-102zM256 1792h512v256h-512v-256z" />
<glyph unicode="&#xe6;" horiz-adv-x="1792" d="M1024 768h512v-256h-512v-256h512v-256h-768v512h-512v-512h-256v1024h154v102h102v154h1280v-256h-512v-256zM256 768h512v256h-512v-256z" />
<glyph unicode="&#xe7;" d="M870 1024h154v-256h-256v256h-512v-768h512v256h256v-256h-154v-102h-102v-410h-154v-102h-102v-154h-256v256h256v256h-256v154h-102v102h-154v768h154v102h102v154h512v-154h102v-102z" />
<glyph unicode="&#xe8;" horiz-adv-x="1024" d="M256 768h512v-256h-512v-256h512v-256h-768v1280h768v-256h-512v-256zM0 2048h256v-256h256v-256h-256v154h-102v102h-154v256z" />
<glyph unicode="&#xe9;" horiz-adv-x="1024" d="M256 768h512v-256h-512v-256h512v-256h-768v1280h768v-256h-512v-256zM768 1792h-154v-102h-102v-154h-256v256h256v256h256v-256z" />
<glyph unicode="&#xea;" horiz-adv-x="1024" d="M256 768h512v-256h-512v-256h512v-256h-768v1280h768v-256h-512v-256zM0 1792h154v102h102v154h256v-154h102v-102h154v-256h-256v256h-256v-256h-256v256z" />
<glyph unicode="&#xeb;" horiz-adv-x="1024" d="M256 768h512v-256h-512v-256h512v-256h-768v1280h768v-256h-512v-256zM512 1792h256v-256h-256v256zM0 1792h256v-256h-256v256z" />
<glyph unicode="&#xec;" horiz-adv-x="512" d="M0 1280h256v-1280h-256v1280zM-256 2048h256v-256h256v-256h-256v154h-102v102h-154v256z" />
<glyph unicode="&#xed;" horiz-adv-x="512" d="M0 1280h256v-1280h-256v1280zM512 1792h-154v-102h-102v-154h-256v256h256v256h256v-256z" />
<glyph unicode="&#xee;" horiz-adv-x="512" d="M0 1280h256v-1280h-256v1280zM-256 1792h154v102h102v154h256v-154h102v-102h154v-256h-256v256h-256v-256h-256v256z" />
<glyph unicode="&#xef;" horiz-adv-x="512" d="M0 1280h256v-1280h-256v1280zM-256 1792h256v-256h-256v256zM256 1792h256v-256h-256v256z" />
<glyph unicode="&#xf0;" horiz-adv-x="1536" d="M0 768h256v512h768v-154h102v-102h154v-768h-154v-102h-102v-154h-768v512h-256v256zM512 768h256v-256h-256v-256h512v768h-512v-256z" />
<glyph unicode="&#xf1;" d="M768 1024h-512v-1024h-256v1280h768v-154h102v-102h154v-1024h-256v1024zM0 1792h154v102h102v154h256v-256h256v256h256v-256h-154v-102h-102v-154h-256v254h-256v-254h-256v256z" />
<glyph unicode="&#xf2;" d="M256 2048h256v-256h256v-256h-256v154h-102v102h-154v256zM256 0v154h-102v102h-154v768h154v102h102v154h512v-154h102v-102h154v-768h-154v-102h-102v-154h-512zM256 1024v-768h512v768h-512z" />
<glyph unicode="&#xf3;" d="M768 1792h-154v-102h-102v-154h-256v256h256v256h256v-256zM256 0v154h-102v102h-154v768h154v102h102v154h512v-154h102v-102h154v-768h-154v-102h-102v-154h-512zM256 1024v-768h512v768h-512z" />
<glyph unicode="&#xf4;" d="M0 1792h154v102h102v154h512v-154h102v-102h154v-256h-256v256h-512v-256h-256v256zM256 0v154h-102v102h-154v768h154v102h102v154h512v-154h102v-102h154v-768h-154v-102h-102v-154h-512zM256 1024v-768h512v768h-512z" />
<glyph unicode="&#xf5;" d="M0 1792h154v102h102v154h256v-256h256v256h256v-256h-154v-102h-102v-154h-256v254h-256v-254h-256v256zM256 0v154h-102v102h-154v768h154v102h102v154h512v-154h102v-102h154v-768h-154v-102h-102v-154h-512zM256 1024v-768h512v768h-512z" />
<glyph unicode="&#xf6;" d="M0 1792h256v-256h-256v256zM768 1792h256v-256h-256v256zM256 0v154h-102v102h-154v768h154v102h102v154h512v-154h102v-102h154v-768h-154v-102h-102v-154h-512zM256 1024v-768h512v768h-512z" />
<glyph unicode="&#xf7;" horiz-adv-x="1536" d="M0 768h1280v-256h-1280v256zM768 1024h-256v256h256v-256zM512 0v256h256v-256h-256z" />
<glyph unicode="&#xf8;" horiz-adv-x="1536" d="M154 512h-154v512h154v102h102v154h512v-154h102v-102h154v256h256v-258h-256v-152h102v-102h154v-512h-154v-102h-102v-154h-512v154h-102v100h-154v-254h-256v256h256v154h-102v102zM256 512h256v256h256v256h-512v-512zM768 766v-256h-256v-254h512v510h-256z" />
<glyph unicode="&#xf9;" d="M256 154h-102v102h-154v1024h256v-1024h512v1024h256v-1280h-768v154zM256 2048h256v-256h256v-256h-256v154h-102v102h-154v256z" />
<glyph unicode="&#xfa;" d="M256 154h-102v102h-154v1024h256v-1024h512v1024h256v-1280h-768v154zM768 1792h-154v-102h-102v-154h-256v256h256v256h256v-256z" />
<glyph unicode="&#xfb;" d="M256 154h-102v102h-154v1024h256v-1024h512v1024h256v-1280h-768v154zM0 1792h154v102h102v154h512v-154h102v-102h154v-256h-256v256h-512v-256h-256v256z" />
<glyph unicode="&#xfc;" d="M256 154h-102v102h-154v1024h256v-1024h512v1024h256v-1280h-768v154zM0 1792h256v-256h-256v256zM768 1792h256v-256h-256v256z" />
<glyph unicode="&#xfd;" d="M0 0h768v154h102v102h154v1024h-256v-512h-512v512h-256v-512h154v-102h102v-154h512v-256h-768v-256zM768 1792h-154v-102h-102v-154h-256v256h256v256h256v-256z" />
<glyph unicode="&#xfe;" d="M0 -256v1792h256v-256h512v-154h102v-102h154v-768h-154v-102h-102v-154h-512v-256h-256zM768 256v768h-512v-768h512z" />
<glyph unicode="&#xff;" d="M0 256h768v256h-512v154h-102v102h-154v512h256v-512h512v512h256v-1024h-154v-102h-102v-154h-768v256zM768 1792h256v-256h-256v256zM0 1792h256v-256h-256v256z" />
<glyph unicode="&#x152;" horiz-adv-x="1792" d="M1024 768h512v-256h-512v-256h512v-256h-1280v154h-102v102h-154v768h154v102h102v154h1280v-256h-512v-256zM256 1024v-768h512v768h-512z" />
<glyph unicode="&#x153;" horiz-adv-x="1792" d="M1024 768h512v-256h-512v-256h512v-256h-1280v154h-102v102h-154v768h154v102h102v154h1280v-256h-512v-256zM256 1024v-768h512v768h-512z" />
<glyph unicode="&#x178;" d="M0 256h768v256h-512v154h-102v102h-154v512h256v-512h512v512h256v-1024h-154v-102h-102v-154h-768v256zM768 1792h256v-256h-256v256zM0 1792h256v-256h-256v256z" />
<glyph unicode="&#x2c6;" horiz-adv-x="1024" d="M256 1536h-256v256h154v102h102v154h256v-154h102v-102h154v-256h-256v256h-256v-256z" />
<glyph unicode="&#x2dc;" d="M0 1792h154v102h102v154h256v-256h256v256h256v-256h-154v-102h-102v-154h-256v254h-256v-254h-256v256z" />
<glyph unicode="&#x2000;" horiz-adv-x="1150" />
<glyph unicode="&#x2001;" horiz-adv-x="2304" />
<glyph unicode="&#x2002;" horiz-adv-x="1150" />
<glyph unicode="&#x2003;" horiz-adv-x="2304" />
<glyph unicode="&#x2004;" horiz-adv-x="768" />
<glyph unicode="&#x2005;" horiz-adv-x="575" />
<glyph unicode="&#x2006;" horiz-adv-x="382" />
<glyph unicode="&#x2007;" horiz-adv-x="382" />
<glyph unicode="&#x2008;" horiz-adv-x="286" />
<glyph unicode="&#x2009;" horiz-adv-x="460" />
<glyph unicode="&#x200a;" horiz-adv-x="126" />
<glyph unicode="&#x2010;" horiz-adv-x="1024" d="M0 768h768v-256h-768v256z" />
<glyph unicode="&#x2011;" horiz-adv-x="1024" d="M0 768h768v-256h-768v256z" />
<glyph unicode="&#x2012;" horiz-adv-x="1024" d="M0 768h768v-256h-768v256z" />
<glyph unicode="&#x2013;" horiz-adv-x="1536" d="M0 768h1280v-256h-1280v256z" />
<glyph unicode="&#x2014;" horiz-adv-x="2048" d="M0 768h1792v-256h-1792v256z" />
<glyph unicode="&#x2018;" horiz-adv-x="768" d="M0 1024h154v102h102v154h256v-256h-256v-256h-256v256z" />
<glyph unicode="&#x2019;" horiz-adv-x="768" d="M512 1024h-154v-102h-102v-154h-256v256h256v256h256v-256z" />
<glyph unicode="&#x201a;" horiz-adv-x="768" d="M512 0h-154v-102h-102v-154h-256v256h256v256h256v-256z" />
<glyph unicode="&#x201c;" d="M256 768h-256v256h154v102h102v154h256v-256h154v102h102v154h256v-256h-256v-256h-256v254h-256v-254z" />
<glyph unicode="&#x201d;" d="M768 922v-154h-256v254h-154v-100h-102v-154h-256v256h256v256h256v-256h256v256h256v-256h-154v-102h-102z" />
<glyph unicode="&#x201e;" d="M768 -102v-154h-256v254h-154v-100h-102v-154h-256v256h256v256h256v-256h256v256h256v-256h-154v-102h-102z" />
<glyph unicode="&#x2022;" horiz-adv-x="1536" d="M0 1024h256v256h768v-256h256v-768h-256v-256h-768v256h-256v768z" />
<glyph unicode="&#x2026;" horiz-adv-x="1536" d="M0 256h256v-256h-256v256zM1024 256h256v-256h-256v256zM512 256h256v-256h-256v256z" />
<glyph unicode="&#x202f;" horiz-adv-x="460" />
<glyph unicode="&#x2039;" horiz-adv-x="1024" d="M256 510h-256v258h256v256h256v256h256v-258h-256v-256h-256v-254h256v-256h256v-256h-256v254h-256v256z" />
<glyph unicode="&#x203a;" horiz-adv-x="1024" d="M512 254h-256v-254h-256v256h256v256h256v254h-256v256h-256v258h256v-256h256v-256h256v-258h-256v-256z" />
<glyph unicode="&#x205f;" horiz-adv-x="575" />
<glyph unicode="&#x20ac;" d="M256 768h614v-102h-102v-156h-512v-254h768v-256h-768v154h-102v102h-154v768h154v102h102v154h768v-256h-768v-256z" />
<glyph unicode="&#x2122;" horiz-adv-x="1792" d="M1280 1024v256h256v-768h-256v256h-256v-256h-256v512h-256v-512h-256v512h-256v256h1024v-256h256z" />
<glyph unicode="&#xe000;" d="M0 1280h1280v-1280h-1280v1280z" />
<glyph unicode="&#xfb01;" horiz-adv-x="1536" d="M256 768h512v-256h-512v-512h-256v1280h768v-256h-512v-256zM1024 1280h256v-1280h-256v1280z" />
<glyph unicode="&#xfb02;" horiz-adv-x="2048" d="M256 0h-256v1280h768v-256h-512v-256h512v-256h-512v-512zM1024 1280h256v-1024h512v-256h-768v1280z" />
<glyph unicode="&#xfb03;" horiz-adv-x="2560" d="M2048 1280h256v-1280h-256v1280zM1280 768h512v-256h-512v-512h-256v1280h768v-256h-512v-256zM256 768h512v-256h-512v-512h-256v1280h768v-256h-512v-256z" />
<glyph unicode="&#xfb04;" horiz-adv-x="3072" d="M2048 1280h256v-1024h512v-256h-768v1280zM1280 768h512v-256h-512v-512h-256v1280h768v-256h-512v-256zM256 768h512v-256h-512v-512h-256v1280h768v-256h-512v-256z" />
</font>
</defs>
</svg>
